<svg xmlns="http://www.w3.org/2000/svg" width="750" height="400" viewBox="0 0 600 600">
  <ellipse id="Elipsa_1" data-name="Elipsa 1" style="fill: #fff" cx="300" cy="100" rx="300" ry="100"/>
  <rect id="Prostokąt_1" data-name="Prostokąt 1" style="fill: #fff" y="100" width="600" height="500"/>
  <path id="Elipsa_2" data-name="Elipsa 2" style="fill: none; stroke: #000; stroke-width:2; opacity:0.25" d="M302,10c159.058,0,288,38.951,288,87s-128.942,87-288,87S14,145.049,14,97,142.942,10,302,10Zm0,0c159.058,0,288,38.951,288,87s-128.942,87-288,87S14,145.049,14,97,142.942,10,302,10Z"/>
  <path id="Elipsa_2-2" data-name="Elipsa 2" style="fill: none; stroke: #000; stroke-width:2; opacity:0.5" d="M302,15c136.414,0,247,30.221,247,67.5S438.414,150,302,150,55,119.779,55,82.5,165.586,15,302,15Zm0,0c136.414,0,247,30.221,247,67.5S438.414,150,302,150,55,119.779,55,82.5,165.586,15,302,15Z"/>
  <path id="Elipsa_2-3" data-name="Elipsa 2" style="fill: none; stroke: #000; stroke-width:2; opacity:0.65" d="M304,19c114.875,0,208,21.714,208,48.5S418.875,116,304,116,96,94.286,96,67.5,189.125,19,304,19Zm0,0c114.875,0,208,21.714,208,48.5S418.875,116,304,116,96,94.286,96,67.5,189.125,19,304,19Z"/>
</svg>
